<svg width="28" height="28" viewBox="0 0 28 28" fill="none" xmlns="http://www.w3.org/2000/svg">
<path fill-rule="evenodd" clip-rule="evenodd" d="M14.0007 3.20703C8.04058 3.20703 3.20898 8.03863 3.20898 13.9987C3.20898 19.9588 8.04058 24.7904 14.0007 24.7904C19.9607 24.7904 24.7923 19.9588 24.7923 13.9987C24.7923 8.03863 19.9607 3.20703 14.0007 3.20703ZM1.45898 13.9987C1.45898 7.07213 7.07408 1.45703 14.0007 1.45703C20.9272 1.45703 26.5423 7.07213 26.5423 13.9987C26.5423 20.9253 20.9272 26.5404 14.0007 26.5404C7.07408 26.5404 1.45898 20.9253 1.45898 13.9987ZM14.0007 8.45703C14.4839 8.45703 14.8757 8.84878 14.8757 9.33203V13.6363L17.536 16.2966C17.8777 16.6384 17.8777 17.1924 17.536 17.5341C17.1943 17.8758 16.6403 17.8758 16.2986 17.5341L13.3819 14.6174C13.2178 14.4533 13.1257 14.2308 13.1257 13.9987V9.33203C13.1257 8.84878 13.5174 8.45703 14.0007 8.45703Z" fill="white"/>
</svg>
