<svg width="20" height="20" viewBox="0 0 20 20" fill="none" xmlns="http://www.w3.org/2000/svg">
<path d="M12.2917 18.9583H8.54167V12.9167H7.74999C7.26666 12.9167 6.875 12.525 6.875 12.0417V10.4583C6.875 9.97499 7.26666 9.58333 7.74999 9.58333H8.54167V7.5C8.54167 5.775 9.94167 4.375 11.6667 4.375H13.9167C14.4 4.375 14.7917 4.76666 14.7917 5.24999V7.25001C14.7917 7.73334 14.4 8.125 13.9167 8.125H12.2917V9.58333H13.8583C14.125 9.58333 14.3667 9.7 14.5333 9.9C14.7 10.1 14.7667 10.3667 14.7167 10.625L14.4 12.2083C14.3167 12.6167 13.9583 12.9083 13.5417 12.9083H12.2917V18.9583ZM9.79167 17.7083H11.0417V11.6667H13.2417L13.4083 10.8333H11.05V7.74999C11.05 7.26666 11.4417 6.875 11.925 6.875H13.55V5.625H11.6667C10.6333 5.625 9.79167 6.46667 9.79167 7.5V10.8333H8.125V11.6667H9.79167V17.7083Z" fill="#191919"/>
<path d="M12.5 18.9596H7.49996C2.97496 18.9596 1.04163 17.0263 1.04163 12.5013V7.5013C1.04163 2.9763 2.97496 1.04297 7.49996 1.04297H12.5C17.025 1.04297 18.9583 2.9763 18.9583 7.5013V12.5013C18.9583 17.0263 17.025 18.9596 12.5 18.9596ZM7.49996 2.29297C3.65829 2.29297 2.29163 3.65964 2.29163 7.5013V12.5013C2.29163 16.343 3.65829 17.7096 7.49996 17.7096H12.5C16.3416 17.7096 17.7083 16.343 17.7083 12.5013V7.5013C17.7083 3.65964 16.3416 2.29297 12.5 2.29297H7.49996Z" fill="#191919"/>
</svg>
