<svg width="20" height="20" viewBox="0 0 20 20" fill="none" xmlns="http://www.w3.org/2000/svg">
<path d="M12.5 18.9596H7.49996C2.97496 18.9596 1.04163 17.0263 1.04163 12.5013V7.5013C1.04163 2.9763 2.97496 1.04297 7.49996 1.04297H12.5C17.025 1.04297 18.9583 2.9763 18.9583 7.5013V12.5013C18.9583 17.0263 17.025 18.9596 12.5 18.9596ZM7.49996 2.29297C3.65829 2.29297 2.29163 3.65964 2.29163 7.5013V12.5013C2.29163 16.343 3.65829 17.7096 7.49996 17.7096H12.5C16.3416 17.7096 17.7083 16.343 17.7083 12.5013V7.5013C17.7083 3.65964 16.3416 2.29297 12.5 2.29297H7.49996Z" fill="#191919"/>
<path d="M10 13.5404C8.05004 13.5404 6.45837 11.9487 6.45837 9.9987C6.45837 8.0487 8.05004 6.45703 10 6.45703C11.95 6.45703 13.5417 8.0487 13.5417 9.9987C13.5417 11.9487 11.95 13.5404 10 13.5404ZM10 7.70703C8.73337 7.70703 7.70837 8.73203 7.70837 9.9987C7.70837 11.2654 8.73337 12.2904 10 12.2904C11.2667 12.2904 12.2917 11.2654 12.2917 9.9987C12.2917 8.73203 11.2667 7.70703 10 7.70703Z" fill="#191919"/>
<path d="M14.1667 6.24943C14.0584 6.24943 13.95 6.22443 13.85 6.18277C13.75 6.1411 13.6584 6.08277 13.575 6.00777C13.5 5.92443 13.4334 5.83277 13.3917 5.73277C13.35 5.63277 13.3334 5.52443 13.3334 5.4161C13.3334 5.30777 13.35 5.19943 13.3917 5.09943C13.4417 4.9911 13.5 4.90777 13.575 4.82443C13.6167 4.7911 13.6584 4.74943 13.7 4.72443C13.75 4.6911 13.8 4.6661 13.85 4.64943C13.9 4.62443 13.95 4.60777 14.0084 4.59943C14.275 4.5411 14.5584 4.63277 14.7584 4.82443C14.8334 4.90777 14.8917 4.9911 14.9334 5.09943C14.975 5.19943 15 5.30777 15 5.4161C15 5.52443 14.975 5.63277 14.9334 5.73277C14.8917 5.83277 14.8334 5.92443 14.7584 6.00777C14.675 6.08277 14.5834 6.1411 14.4834 6.18277C14.3834 6.22443 14.275 6.24943 14.1667 6.24943Z" fill="#191919"/>
</svg>
