<svg width="20" height="20" viewBox="0 0 20 20" fill="none" xmlns="http://www.w3.org/2000/svg">
<path d="M4.43637 14.9306V8.029C4.43637 7.67902 4.72021 7.39529 5.07017 7.39521C5.4202 7.39521 5.70396 7.67897 5.70396 8.029V14.9306C5.70381 15.2805 5.42011 15.5644 5.07017 15.5644C4.7203 15.5643 4.43652 15.2804 4.43637 14.9306ZM14.2957 14.9306V10.9867C14.2957 10.6815 14.2359 10.379 14.1191 10.0971C14.0023 9.8152 13.8306 9.55938 13.6148 9.34363C13.399 9.12783 13.1425 8.95619 12.8606 8.8394C12.5788 8.72275 12.2767 8.66281 11.9718 8.66279C11.6666 8.66279 11.3641 8.72261 11.0821 8.8394C10.8002 8.95617 10.5444 9.12787 10.3287 9.34363C10.1129 9.55937 9.94123 9.81521 9.82445 10.0971C9.73682 10.3086 9.68093 10.5319 9.65857 10.7589L9.64784 10.9867V14.9306C9.6477 15.2805 9.36394 15.5643 9.01405 15.5644C8.66411 15.5644 8.3804 15.2805 8.38026 14.9306V8.029C8.38026 7.67897 8.66401 7.39521 9.01405 7.39521C9.36403 7.39527 9.64784 7.679 9.64784 8.029V8.24934C9.93189 8.00821 10.2516 7.81143 10.5969 7.66836C11.0326 7.48787 11.5001 7.39521 11.9718 7.39521C12.4433 7.39522 12.9102 7.48797 13.3458 7.66836C13.7815 7.84885 14.1776 8.1139 14.5111 8.4474C14.8445 8.78089 15.1096 9.17694 15.2901 9.61266C15.4705 10.0483 15.5633 10.5152 15.5633 10.9867V14.9306C15.5631 15.2805 15.2794 15.5643 14.9295 15.5644C14.5795 15.5644 14.2958 15.2805 14.2957 14.9306ZM5.07842 4.4375C5.42836 4.43761 5.71221 4.72133 5.71221 5.07129C5.71221 5.42126 5.42836 5.70498 5.07842 5.70509H5.06934C4.71931 5.70509 4.43555 5.42133 4.43555 5.07129C4.43555 4.72126 4.71931 4.4375 5.06934 4.4375H5.07842Z" fill="#191919"/>
<path d="M18.7324 9.99959C18.7324 7.77389 18.731 6.16809 18.5665 4.94491C18.4046 3.74022 18.0947 3.0017 17.5465 2.45348C16.9983 1.90524 16.2593 1.59546 15.0543 1.43346C13.8309 1.26903 12.2249 1.26759 9.99959 1.26759C7.77389 1.26759 6.16809 1.26904 4.94491 1.43346C3.74014 1.59546 3.00171 1.90524 2.45348 2.45348C1.90521 3.00174 1.59545 3.74057 1.43346 4.94574C1.26905 6.16903 1.26759 7.77443 1.26759 9.99959C1.26759 12.2253 1.26906 13.8311 1.43346 15.0543C1.59544 16.2593 1.90518 16.9982 2.45348 17.5465C3.00173 18.0947 3.74067 18.4046 4.94574 18.5665C6.16903 18.7309 7.77446 18.7324 9.99959 18.7324C12.2253 18.7324 13.8311 18.7309 15.0543 18.5665C16.2593 18.4046 16.9982 18.0948 17.5465 17.5465C18.0948 16.9983 18.4045 16.2593 18.5665 15.0543C18.731 13.8309 18.7324 12.2249 18.7324 9.99959ZM20 9.99959C20 12.1889 20.0009 13.8952 19.8226 15.2226C19.6417 16.5682 19.2659 17.6196 18.4427 18.4427C17.6197 19.2658 16.5689 19.6417 15.2234 19.8226C13.8961 20.001 12.1896 20 9.99959 20C7.8102 20 6.10393 20.001 4.77656 19.8226C3.43115 19.6417 2.38031 19.2657 1.55725 18.4427C0.734191 17.6197 0.358307 16.5689 0.177429 15.2234C-0.00098952 13.8961 1.1955e-07 12.1896 1.1955e-07 9.99959C7.33035e-09 7.8102 -0.000980567 6.10393 0.177429 4.77656C0.358304 3.43109 0.734184 2.38032 1.55725 1.55725C2.38035 0.734156 3.43103 0.358298 4.77656 0.177429C6.1038 -0.00096839 7.80976 3.06018e-09 9.99959 1.15287e-07C12.189 1.15287e-07 13.8952 -0.00095163 15.2226 0.177429C16.5682 0.35829 17.6196 0.734129 18.4427 1.55725C19.2657 2.38033 19.6417 3.43111 19.8226 4.77656C20.001 6.10379 20 7.80978 20 9.99959Z" fill="#191919"/>
</svg>
