<svg width="28" height="28" viewBox="0 0 28 28" fill="none" xmlns="http://www.w3.org/2000/svg">
<path fill-rule="evenodd" clip-rule="evenodd" d="M13.9994 4.375C12.3265 4.375 10.6912 4.87106 9.3002 5.80046C7.90924 6.72985 6.82512 8.05084 6.18491 9.59637C5.54471 11.1419 5.37718 12.8426 5.70351 14.4833C6.02984 16.124 6.83534 17.6311 8.01817 18.814C8.01814 18.814 8.0182 18.8141 8.01817 18.814L12.9693 23.764C13.2427 24.0371 13.6134 24.1906 13.9999 24.1906C14.3865 24.1906 14.7572 24.0371 15.0306 23.764L19.9805 18.8141C21.1633 17.6312 21.9689 16.1241 22.2952 14.4833C22.6215 12.8426 22.454 11.1419 21.8138 9.59637C21.1736 8.05084 20.0895 6.72985 18.6985 5.80046C17.3075 4.87106 15.6722 4.375 13.9994 4.375ZM8.32796 4.34538C10.0067 3.22369 11.9804 2.625 13.9994 2.625C16.0183 2.625 17.992 3.22369 19.6707 4.34538C21.3495 5.46706 22.6579 7.06135 23.4306 8.92665C24.2032 10.792 24.4054 12.8445 24.0116 14.8247C23.6177 16.8049 22.6455 18.6238 21.2179 20.0515L16.2677 25.0017C15.6662 25.6027 14.8503 25.9406 13.9999 25.9406C13.1496 25.9406 12.334 25.603 11.7324 25.002L6.78087 20.0516C5.35327 18.6239 4.38098 16.8049 3.98713 14.8247C3.59328 12.8445 3.79547 10.792 4.56813 8.92665C5.34079 7.06135 6.64922 5.46706 8.32796 4.34538ZM10.9058 9.73974C11.7262 8.91927 12.839 8.45833 13.9993 8.45833C15.1597 8.45833 16.2725 8.91927 17.0929 9.73974C17.9134 10.5602 18.3743 11.673 18.3743 12.8333C18.3743 13.9937 17.9134 15.1065 17.0929 15.9269C16.2725 16.7474 15.1597 17.2083 13.9993 17.2083C12.839 17.2083 11.7262 16.7474 10.9058 15.9269C10.0853 15.1065 9.62435 13.9937 9.62435 12.8333C9.62435 11.673 10.0853 10.5602 10.9058 9.73974ZM13.9993 10.2083C13.3032 10.2083 12.6355 10.4849 12.1432 10.9772C11.6509 11.4695 11.3743 12.1371 11.3743 12.8333C11.3743 13.5295 11.6509 14.1972 12.1432 14.6895C12.6355 15.1818 13.3032 15.4583 13.9993 15.4583C14.6955 15.4583 15.3632 15.1818 15.8555 14.6895C16.3478 14.1972 16.6243 13.5295 16.6243 12.8333C16.6243 12.1371 16.3478 11.4695 15.8555 10.9772C15.3632 10.4849 14.6955 10.2083 13.9993 10.2083Z" fill="white"/>
</svg>
