<svg width="28" height="28" viewBox="0 0 28 28" fill="none" xmlns="http://www.w3.org/2000/svg">
<path fill-rule="evenodd" clip-rule="evenodd" d="M5.83333 6.70703C5.44656 6.70703 5.07563 6.86068 4.80214 7.13417C4.63165 7.30466 4.50773 7.51301 4.43858 7.73946L14 14.1137L23.5614 7.73946C23.4923 7.51301 23.3684 7.30466 23.1979 7.13417C22.9244 6.86068 22.5534 6.70703 22.1667 6.70703H5.83333ZM23.625 9.80032L14.4854 15.8934C14.1915 16.0894 13.8085 16.0894 13.5146 15.8934L4.375 9.80032V19.832C4.375 20.2188 4.52865 20.5897 4.80214 20.8632C5.07563 21.1367 5.44656 21.2904 5.83333 21.2904H22.1667C22.5534 21.2904 22.9244 21.1367 23.1979 20.8632C23.4714 20.5897 23.625 20.2188 23.625 19.832V9.80032ZM3.5647 5.89673C4.16638 5.29505 4.98243 4.95703 5.83333 4.95703H22.1667C23.0176 4.95703 23.8336 5.29505 24.4353 5.89673C25.037 6.49841 25.375 7.31446 25.375 8.16536V19.832C25.375 20.6829 25.037 21.499 24.4353 22.1007C23.8336 22.7023 23.0176 23.0404 22.1667 23.0404H5.83333C4.98243 23.0404 4.16638 22.7023 3.5647 22.1007C2.96302 21.499 2.625 20.6829 2.625 19.832V8.16536C2.625 7.31446 2.96302 6.49841 3.5647 5.89673Z" fill="white"/>
</svg>
