<svg width="28" height="28" viewBox="0 0 28 28" fill="none" xmlns="http://www.w3.org/2000/svg">
<path fill-rule="evenodd" clip-rule="evenodd" d="M5.83333 5.54297C5.44656 5.54297 5.07563 5.69661 4.80214 5.9701C4.53425 6.23799 4.38135 6.59935 4.37519 6.97753C4.64529 11.3042 6.48585 15.3838 9.55169 18.4496C12.6175 21.5155 16.6971 23.356 21.0238 23.6261C21.4019 23.62 21.7633 23.467 22.0312 23.1992C22.3047 22.9257 22.4583 22.5547 22.4583 22.168V18.0937L17.8669 16.2571L16.5003 18.5348C16.266 18.9253 15.7714 19.0708 15.363 18.8694C12.6568 17.5347 10.4666 15.3445 9.13191 12.6383C8.93049 12.2299 9.076 11.7353 9.46648 11.501L11.7442 10.1344L9.9076 5.54297H5.83333ZM3.5647 4.73267C4.16638 4.13099 4.98243 3.79297 5.83333 3.79297H10.5C10.8578 3.79297 11.1795 4.0108 11.3124 4.343L13.6458 10.1763C13.8053 10.5751 13.6518 11.0307 13.2835 11.2516L11.0811 12.5731C12.1264 14.3761 13.6253 15.8749 15.4282 16.9202L16.7497 14.7178C16.9707 14.3495 17.4262 14.1961 17.825 14.3556L23.6583 16.6889C23.9905 16.8218 24.2083 17.1435 24.2083 17.5013V22.168C24.2083 23.0189 23.8703 23.8349 23.2686 24.4366C22.667 25.0383 21.8509 25.3763 21 25.3763C20.9823 25.3763 20.9646 25.3758 20.9469 25.3747C16.1827 25.0852 11.6892 23.0621 8.31425 19.6871C4.93925 16.3121 2.91613 11.8186 2.62661 7.05438C2.62554 7.03671 2.625 7.01901 2.625 7.0013C2.625 6.1504 2.96302 5.33435 3.5647 4.73267Z" fill="white"/>
</svg>
