<svg width="20" height="20" viewBox="0 0 20 20" fill="none" xmlns="http://www.w3.org/2000/svg">
<path d="M1.66666 18.9602C1.49999 18.9602 1.34164 18.8935 1.22497 18.7768C1.06664 18.6185 1.00001 18.3852 1.05834 18.1685L2.10835 14.2435C1.40835 12.9435 1.04166 11.4768 1.04166 9.99349C1.04166 5.05182 5.05833 1.03516 9.99999 1.03516C14.9417 1.03516 18.9583 5.05182 18.9583 9.99349C18.9583 14.9352 14.9417 18.9518 9.99999 18.9518C8.49166 18.9518 7.01668 18.5768 5.70002 17.8602L1.83334 18.9352C1.775 18.9518 1.72499 18.9602 1.66666 18.9602ZM5.78333 16.5685C5.89166 16.5685 6 16.6018 6.1 16.6518C7.275 17.3435 8.62499 17.7102 9.99999 17.7102C14.25 17.7102 17.7083 14.2518 17.7083 10.0018C17.7083 5.75183 14.25 2.2935 9.99999 2.2935C5.74999 2.2935 2.29166 5.75183 2.29166 10.0018C2.29166 11.3602 2.64999 12.6852 3.32499 13.8518C3.40832 13.9935 3.43333 14.1685 3.39167 14.3268L2.55833 17.4435L5.62499 16.5935C5.67499 16.5768 5.73333 16.5685 5.78333 16.5685Z" fill="#191919"/>
<path d="M12.2833 14.7989C11.7666 14.7989 11.2333 14.6823 10.675 14.4406C10.15 14.2156 9.62496 13.9156 9.11663 13.5406C8.61663 13.1739 8.12498 12.7573 7.67498 12.3073C7.22498 11.8489 6.80828 11.3656 6.44161 10.8656C6.06661 10.3406 5.7666 9.82393 5.54994 9.3156C5.3166 8.7656 5.19995 8.22394 5.19995 7.70727C5.19995 7.3406 5.2666 6.9906 5.3916 6.6656C5.52493 6.32394 5.74161 6.0156 6.02494 5.74893C6.55828 5.22393 7.32498 5.03228 7.93331 5.32395C8.14164 5.41562 8.31664 5.56561 8.44997 5.76561L9.41662 7.12393C9.51662 7.25726 9.59164 7.39893 9.64997 7.54059C9.71664 7.70726 9.75831 7.87395 9.75831 8.03228C9.75831 8.24895 9.69996 8.46562 9.58329 8.65728C9.50829 8.78228 9.39995 8.93228 9.25828 9.07395L9.14994 9.1906C9.19994 9.25727 9.25827 9.34059 9.34994 9.44059C9.52494 9.64059 9.7166 9.85726 9.92494 10.0656C10.1333 10.2656 10.3416 10.4656 10.5499 10.6406C10.6499 10.7239 10.7333 10.7906 10.8 10.8323L10.9166 10.7156C11.0666 10.5656 11.2166 10.4489 11.3666 10.3739C11.6416 10.1989 12.0666 10.1573 12.4416 10.3156C12.575 10.3656 12.7083 10.4406 12.8499 10.5406L14.2416 11.5239C14.4333 11.6573 14.5833 11.8406 14.6833 12.0489C14.7666 12.2573 14.8 12.4406 14.8 12.6323C14.8 12.8823 14.7416 13.1239 14.6333 13.3573C14.525 13.5739 14.3999 13.7656 14.2499 13.9406C13.9833 14.2323 13.675 14.4489 13.3416 14.5906C13.0083 14.7323 12.65 14.7989 12.2833 14.7989ZM7.32494 6.44893C7.27494 6.44893 7.10832 6.44893 6.89998 6.65726C6.74165 6.80726 6.63329 6.96561 6.55829 7.14061C6.48329 7.31561 6.44995 7.51561 6.44995 7.71561C6.44995 8.06561 6.53327 8.44059 6.69994 8.84059C6.87494 9.25726 7.13329 9.69895 7.44996 10.1406C7.77496 10.5823 8.14163 11.0239 8.54997 11.4323C8.9583 11.8323 9.39162 12.2073 9.84162 12.5406C10.275 12.8573 10.7166 13.1073 11.1583 13.2989C11.7916 13.5739 12.3749 13.6406 12.8499 13.4406C13.0166 13.3739 13.1666 13.2573 13.3166 13.1073C13.3916 13.0239 13.45 12.9406 13.5 12.8323C13.525 12.7739 13.5416 12.7073 13.5416 12.6489C13.5416 12.6323 13.5416 12.6073 13.5166 12.5573L12.1249 11.5906C12.0666 11.5489 12.0083 11.5156 11.9583 11.4989C11.9249 11.5156 11.875 11.5406 11.7833 11.6323L11.4666 11.9489C11.225 12.1906 10.8416 12.2573 10.5333 12.1489L10.3833 12.0823C10.1916 11.9823 9.97495 11.8323 9.73329 11.6239C9.49995 11.4239 9.27498 11.2156 9.03332 10.9823C8.79998 10.7406 8.59163 10.5156 8.39163 10.2823C8.17497 10.0239 8.02497 9.81561 7.92497 9.64061L7.83331 9.42393C7.80831 9.3406 7.79995 9.24894 7.79995 9.1656C7.79995 8.93227 7.88331 8.72393 8.04165 8.55726L8.35832 8.23227C8.44998 8.14061 8.4833 8.09061 8.49997 8.05728C8.47497 7.99895 8.44164 7.94894 8.39997 7.8906L7.42494 6.51561L7.32494 6.44893Z" fill="#191919"/>
</svg>
